# xmcd
#
# Track frame offsets:
#	150
#	15085
#	32951
#	47603
#	63964
#	79468
#	94273
#	110216
#	121714
#	134097
#	145230
#	160762
#	177436
#	191823
#	208192
#
# Disc length: 2946 seconds
#
# Revision: 0
# Processed by: cddbd v1.5.2PL0 Copyright (c) Steve Scherf et al.
# Submitted via: dBpowerAMP V4.0
#
DISCID=d90b800f
DTITLE=MANO WALTER - cavalo ciumento
DYEAR=2005
DGENRE=FORRO
TTITLE0=cavalo ciumento
TTITLE1=homenagem a cara veia
TTITLE2=calcinha apertada
TTITLE3=historia de ailton
TTITLE4=vida de vaqueiro
TTITLE5=amor sem fim
TTITLE6=cheiro de mandinga
TTITLE7=amor inesplicavel
TTITLE8=vaqueiro apaixonado
TTITLE9=meu bem querer
TTITLE10=sou filho da terra
TTITLE11=chuva de verao
TTITLE12=pingo d`agua
TTITLE13=alegria de fazendeiro
TTITLE14=parque paciente veiga
EXTD=
EXTT0=
EXTT1=
EXTT2=
EXTT3=
EXTT4=
EXTT5=
EXTT6=
EXTT7=
EXTT8=
EXTT9=
EXTT10=
EXTT11=
EXTT12=
EXTT13=
EXTT14=
PLAYORDER=
